<svg width="512" height="512" viewBox="0 0 512 512" fill="none" xmlns="http://www.w3.org/2000/svg">
<rect width="512" height="512" fill="white"/>
<path d="M264.469 77.4688V82.375H263.406C258.906 82.4583 255.323 83.7917 252.656 86.375C249.99 88.9583 248.448 92.5938 248.031 97.2812C250.427 94.5312 253.698 93.1562 257.844 93.1562C261.802 93.1562 264.958 94.5521 267.312 97.3438C269.688 100.135 270.875 103.74 270.875 108.156C270.875 112.844 269.594 116.594 267.031 119.406C264.49 122.219 261.073 123.625 256.781 123.625C252.427 123.625 248.896 121.958 246.188 118.625C243.479 115.271 242.125 110.958 242.125 105.688V103.469C242.125 95.0938 243.906 88.6979 247.469 84.2812C251.052 79.8438 256.375 77.5729 263.438 77.4688H264.469ZM256.875 97.9688C254.896 97.9688 253.073 98.5625 251.406 99.75C249.74 100.938 248.583 102.427 247.938 104.219V106.344C247.938 110.094 248.781 113.115 250.469 115.406C252.156 117.698 254.26 118.844 256.781 118.844C259.385 118.844 261.427 117.885 262.906 115.969C264.406 114.052 265.156 111.542 265.156 108.438C265.156 105.312 264.396 102.792 262.875 100.875C261.375 98.9375 259.375 97.9688 256.875 97.9688Z" fill="#1E90FF"/>
<rect x="179.5" y="24.5" width="154" height="154" stroke="black"/>
<path d="M334.5 24.5H444C468.577 24.5 488.5 44.4233 488.5 69V178.5H334.5V24.5Z" stroke="black"/>
<path d="M421.188 262.719H427.5V267.438H421.188V278H415.375V267.438H394.656V264.031L415.031 232.5H421.188V262.719ZM401.219 262.719H415.375V240.406L414.688 241.656L401.219 262.719Z" fill="black"/>
<rect x="334.5" y="179.5" width="154" height="154" stroke="black"/>
<path d="M418.938 413C417.729 414.438 416.281 415.594 414.594 416.469C412.927 417.344 411.094 417.781 409.094 417.781C406.469 417.781 404.177 417.135 402.219 415.844C400.281 414.552 398.781 412.74 397.719 410.406C396.656 408.052 396.125 405.458 396.125 402.625C396.125 399.583 396.698 396.844 397.844 394.406C399.01 391.969 400.656 390.104 402.781 388.812C404.906 387.521 407.385 386.875 410.219 386.875C414.719 386.875 418.26 388.562 420.844 391.938C423.448 395.292 424.75 399.875 424.75 405.688V407.375C424.75 416.229 423 422.698 419.5 426.781C416 430.844 410.719 432.927 403.656 433.031H402.531V428.156H403.75C408.521 428.073 412.188 426.833 414.75 424.438C417.312 422.021 418.708 418.208 418.938 413ZM410.031 413C411.969 413 413.75 412.406 415.375 411.219C417.021 410.031 418.219 408.562 418.969 406.812V404.5C418.969 400.708 418.146 397.625 416.5 395.25C414.854 392.875 412.771 391.688 410.25 391.688C407.708 391.688 405.667 392.667 404.125 394.625C402.583 396.562 401.812 399.125 401.812 402.312C401.812 405.417 402.552 407.979 404.031 410C405.531 412 407.531 413 410.031 413Z" fill="#FFA500"/>
<path d="M334.5 334.5H488.5V444C488.5 468.577 468.577 488.5 444 488.5H334.5V334.5Z" stroke="black"/>
<path d="M271.156 390.75L252.312 433H246.25L265.031 392.25H240.406V387.5H271.156V390.75Z" fill="black"/>
<rect x="179.5" y="334.5" width="154" height="154" stroke="black"/>
<path d="M114.375 400.375C114.375 402.646 113.771 404.667 112.562 406.438C111.375 408.208 109.76 409.594 107.719 410.594C110.094 411.615 111.969 413.104 113.344 415.062C114.74 417.021 115.438 419.24 115.438 421.719C115.438 425.656 114.104 428.792 111.438 431.125C108.792 433.458 105.302 434.625 100.969 434.625C96.5938 434.625 93.0833 433.458 90.4375 431.125C87.8125 428.771 86.5 425.635 86.5 421.719C86.5 419.26 87.1667 417.042 88.5 415.062C89.8542 413.083 91.7188 411.583 94.0938 410.562C92.0729 409.562 90.4792 408.177 89.3125 406.406C88.1458 404.635 87.5625 402.625 87.5625 400.375C87.5625 396.542 88.7917 393.5 91.25 391.25C93.7083 389 96.9479 387.875 100.969 387.875C104.969 387.875 108.198 389 110.656 391.25C113.135 393.5 114.375 396.542 114.375 400.375ZM109.656 421.594C109.656 419.052 108.844 416.979 107.219 415.375C105.615 413.771 103.51 412.969 100.906 412.969C98.3021 412.969 96.2083 413.76 94.625 415.344C93.0625 416.927 92.2812 419.01 92.2812 421.594C92.2812 424.177 93.0417 426.208 94.5625 427.688C96.1042 429.167 98.2396 429.906 100.969 429.906C103.677 429.906 105.802 429.167 107.344 427.688C108.885 426.188 109.656 424.156 109.656 421.594ZM100.969 392.625C98.6979 392.625 96.8542 393.333 95.4375 394.75C94.0417 396.146 93.3438 398.052 93.3438 400.469C93.3438 402.781 94.0312 404.656 95.4062 406.094C96.8021 407.51 98.6562 408.219 100.969 408.219C103.281 408.219 105.125 407.51 106.5 406.094C107.896 404.656 108.594 402.781 108.594 400.469C108.594 398.156 107.875 396.271 106.438 394.812C105 393.354 103.177 392.625 100.969 392.625Z" fill="black"/>
<path d="M24.5 334.5H178.5V488.5H69C44.4233 488.5 24.5 468.577 24.5 444V334.5Z" stroke="black"/>
<rect x="179.5" y="179.5" width="154" height="154" stroke="black"/>
<rect x="24.5" y="179.5" width="154" height="154" stroke="black"/>
<path d="M69 24.5H178.5V178.5H24.5V69C24.5 44.4233 44.4233 24.5 69 24.5Z" stroke="black"/>
<path d="M95.1875 252.438H99.5312C102.26 252.396 104.406 251.677 105.969 250.281C107.531 248.885 108.312 247 108.312 244.625C108.312 239.292 105.656 236.625 100.344 236.625C97.8438 236.625 95.8438 237.344 94.3438 238.781C92.8646 240.198 92.125 242.083 92.125 244.438H86.3438C86.3438 240.833 87.6562 237.844 90.2812 235.469C92.9271 233.073 96.2812 231.875 100.344 231.875C104.635 231.875 108 233.01 110.438 235.281C112.875 237.552 114.094 240.708 114.094 244.75C114.094 246.729 113.448 248.646 112.156 250.5C110.885 252.354 109.146 253.74 106.938 254.656C109.438 255.448 111.365 256.76 112.719 258.594C114.094 260.427 114.781 262.667 114.781 265.312C114.781 269.396 113.448 272.635 110.781 275.031C108.115 277.427 104.646 278.625 100.375 278.625C96.1042 278.625 92.625 277.469 89.9375 275.156C87.2708 272.844 85.9375 269.792 85.9375 266H91.75C91.75 268.396 92.5312 270.312 94.0938 271.75C95.6562 273.188 97.75 273.906 100.375 273.906C103.167 273.906 105.302 273.177 106.781 271.719C108.26 270.26 109 268.167 109 265.438C109 262.792 108.188 260.76 106.562 259.344C104.938 257.927 102.594 257.198 99.5312 257.156H95.1875V252.438Z" fill="#1E90FF"/>
<path d="M95.1875 252.438H99.5312C102.26 252.396 104.406 251.677 105.969 250.281C107.531 248.885 108.312 247 108.312 244.625C108.312 239.292 105.656 236.625 100.344 236.625C97.8438 236.625 95.8438 237.344 94.3438 238.781C92.8646 240.198 92.125 242.083 92.125 244.438H86.3438C86.3438 240.833 87.6562 237.844 90.2812 235.469C92.9271 233.073 96.2812 231.875 100.344 231.875C104.635 231.875 108 233.01 110.438 235.281C112.875 237.552 114.094 240.708 114.094 244.75C114.094 246.729 113.448 248.646 112.156 250.5C110.885 252.354 109.146 253.74 106.938 254.656C109.438 255.448 111.365 256.76 112.719 258.594C114.094 260.427 114.781 262.667 114.781 265.312C114.781 269.396 113.448 272.635 110.781 275.031C108.115 277.427 104.646 278.625 100.375 278.625C96.1042 278.625 92.625 277.469 89.9375 275.156C87.2708 272.844 85.9375 269.792 85.9375 266H91.75C91.75 268.396 92.5312 270.312 94.0938 271.75C95.6562 273.188 97.75 273.906 100.375 273.906C103.167 273.906 105.302 273.177 106.781 271.719C108.26 270.26 109 268.167 109 265.438C109 262.792 108.188 260.76 106.562 259.344C104.938 257.927 102.594 257.198 99.5312 257.156H95.1875V252.438Z" fill="#1E90FF"/>
<path d="M195.969 260.812C195.969 255.625 197.198 251.458 199.656 248.312C202.115 245.146 205.333 243.562 209.312 243.562C213.271 243.562 216.406 244.917 218.719 247.625V230H224.5V278H219.188L218.906 274.375C216.594 277.208 213.375 278.625 209.25 278.625C205.333 278.625 202.135 277.021 199.656 273.812C197.198 270.604 195.969 266.417 195.969 261.25V260.812ZM201.75 261.469C201.75 265.302 202.542 268.302 204.125 270.469C205.708 272.635 207.896 273.719 210.688 273.719C214.354 273.719 217.031 272.073 218.719 268.781V253.25C216.99 250.062 214.333 248.469 210.75 248.469C207.917 248.469 205.708 249.562 204.125 251.75C202.542 253.938 201.75 257.177 201.75 261.469ZM254.375 274.656C252.125 277.302 248.823 278.625 244.469 278.625C240.865 278.625 238.115 277.583 236.219 275.5C234.344 273.396 233.396 270.292 233.375 266.188V244.188H239.156V266.031C239.156 271.156 241.24 273.719 245.406 273.719C249.823 273.719 252.76 272.073 254.219 268.781V244.188H260V278H254.5L254.375 274.656ZM282.844 278.625C278.26 278.625 274.531 277.125 271.656 274.125C268.781 271.104 267.344 267.073 267.344 262.031V260.969C267.344 257.615 267.979 254.625 269.25 252C270.542 249.354 272.333 247.292 274.625 245.812C276.938 244.312 279.438 243.562 282.125 243.562C286.521 243.562 289.938 245.01 292.375 247.906C294.812 250.802 296.031 254.948 296.031 260.344V262.75H273.125C273.208 266.083 274.177 268.781 276.031 270.844C277.906 272.885 280.281 273.906 283.156 273.906C285.198 273.906 286.927 273.49 288.344 272.656C289.76 271.823 291 270.719 292.062 269.344L295.594 272.094C292.76 276.448 288.51 278.625 282.844 278.625ZM282.125 248.312C279.792 248.312 277.833 249.167 276.25 250.875C274.667 252.562 273.688 254.938 273.312 258H290.25V257.562C290.083 254.625 289.292 252.354 287.875 250.75C286.458 249.125 284.542 248.312 282.125 248.312ZM309.031 278H303.25V230H309.031V278Z" fill="black"/>
<path d="M89.4375 100.188L91.75 77.5H115.062V82.8438H96.6562L95.2812 95.25C97.5104 93.9375 100.042 93.2812 102.875 93.2812C107.021 93.2812 110.312 94.6562 112.75 97.4062C115.188 100.135 116.406 103.833 116.406 108.5C116.406 113.188 115.135 116.885 112.594 119.594C110.073 122.281 106.542 123.625 102 123.625C97.9792 123.625 94.6979 122.51 92.1562 120.281C89.6146 118.052 88.1667 114.969 87.8125 111.031H93.2812C93.6354 113.635 94.5625 115.604 96.0625 116.938C97.5625 118.25 99.5417 118.906 102 118.906C104.688 118.906 106.792 117.99 108.312 116.156C109.854 114.323 110.625 111.792 110.625 108.562C110.625 105.521 109.792 103.083 108.125 101.25C106.479 99.3958 104.281 98.4688 101.531 98.4688C99.0104 98.4688 97.0312 99.0208 95.5938 100.125L94.0625 101.375L89.4375 100.188Z" fill="black"/>
<rect x="25" y="25" width="463" height="463" rx="44" stroke="black" stroke-width="2"/>
</svg>
